<svg width="90" height="90" fill="none" xmlns="http://www.w3.org/2000/svg"><path d="M90 12.515c0-3.917-1.117-7.017-3.318-9.211-8.837-8.804-32.072.558-52.905 21.32a29.464 29.464 0 00-2.114 2.384 4.882 4.882 0 00-.759-.239c-6-1.402-25.256 1.87-30.862 24.265a1.404 1.404 0 001.364 1.748c.29 0 .58-.089.825-.268 7.61-5.519 13.713-7.739 19.042-6.922a44.018 44.018 0 01-1.127 1.939 1.406 1.406 0 00.202 1.737l2.206 2.2-4.13 4.114a1.404 1.404 0 000 1.992L32.246 71.35a1.402 1.402 0 001.986 0l4.136-4.122 2.213 2.205a1.406 1.406 0 001.73.202 43.37 43.37 0 011.805-1.049c.916 5.355-1.302 11.498-6.91 19.178a1.407 1.407 0 001.475 2.195C61.098 84.384 64.41 65.195 63.028 59.21a4.42 4.42 0 00-.314-.908 29.764 29.764 0 002.578-2.255C80.302 41.088 90 23.999 90 12.515zM22.58 42.959c-5.485-1.156-11.514.452-18.673 5.01 3.521-9.771 9.934-14.387 14.966-16.56 3.772-1.63 7.206-2.085 9.403-2.085.59 0 1.087.033 1.482.083L22.58 42.96zM33.24 68.37L21.41 56.579l3.137-3.124 10.22 10.184 1.61 1.604-3.137 3.127zm25.167 2.75c-2.175 5.038-6.809 11.458-16.646 14.978 4.565-7.129 6.179-13.133 5.021-18.604l13.604-7.158c.244 1.849.066 6.046-1.98 10.783zm-9.624-8.027c-2.473 1.19-4.829 2.322-6.99 3.577L23.114 48.054c1.008-1.727 1.94-3.603 2.885-5.54l5.71-10.782c1.196-1.85 2.52-3.587 4.054-5.116C54.822 7.62 77.227-2.143 84.696 5.296c1.654 1.647 2.491 4.076 2.491 7.219 0 10.61-9.598 27.305-23.881 41.542-3.979 3.964-9.34 6.542-14.524 9.035z" fill="#fff" fill-opacity=".6"/><path d="M60.081 18.075a8.371 8.371 0 00-2.485 5.974c0 2.259.883 4.38 2.485 5.975a8.47 8.47 0 005.992 2.467c2.17 0 4.34-.823 5.99-2.467a8.37 8.37 0 002.485-5.975 8.37 8.37 0 00-2.485-5.974c-3.301-3.287-8.678-3.287-11.982 0zm10 9.955a5.693 5.693 0 01-8.017 0 5.582 5.582 0 01-1.656-3.981c0-1.504.59-2.917 1.657-3.98a5.665 5.665 0 014.008-1.65 5.66 5.66 0 014.007 1.65 5.58 5.58 0 011.655 3.98 5.582 5.582 0 01-1.655 3.981zM23.154 66.301a1.406 1.406 0 00-1.989-.003L7.11 80.308a1.405 1.405 0 101.985 1.99L23.151 68.29c.55-.548.552-1.438.003-1.989zM8.05 73.088c.359 0 .718-.138.993-.411l9.256-9.226a1.407 1.407 0 00-1.986-1.991l-9.256 9.226a1.407 1.407 0 00.993 2.402zm17.968-1.955l-9.256 9.226a1.407 1.407 0 001.986 1.991l9.256-9.225a1.407 1.407 0 00-1.986-1.992z" fill="#fff" fill-opacity=".6"/></svg>