<svg width="60" height="100" fill="none" xmlns="http://www.w3.org/2000/svg"><path d="M0 100V0h60v100L30 80 0 100z" fill="#24292D"/><path d="M0 100V0h60v100L30 80 0 100z" fill="url(#paint0_linear_92_209)"/><path d="M13.709 45l14.168-32.43h5.244L47.289 45h-5.98l-3.266-7.774H22.817L19.505 45h-5.796zm11.178-12.788h11.086l-5.566-12.88-5.52 12.88zM8.673 64v-8.272h1.232v4.768l4.528-4.768h1.52l-3.456 3.584L16.049 64h-1.456l-2.944-3.792L9.905 62v2H8.673zm8.678.128c-.32 0-.65-.043-.992-.128l.144-1.056c.245.075.443.112.592.112.235 0 .427-.027.576-.08.15-.064.31-.219.48-.464.181-.256.32-.613.416-1.072.096-.459.176-1.11.24-1.952a35.48 35.48 0 00.112-3.072v-.688h5.856V64h-1.232v-7.184h-3.456v.192c0 1.259-.048 2.33-.144 3.216-.096.885-.219 1.579-.368 2.08-.139.501-.336.89-.592 1.168-.256.277-.507.453-.752.528-.235.085-.528.128-.88.128zm12.645.048c-.842 0-1.568-.23-2.176-.688-.608-.459-.912-1.099-.912-1.92 0-.864.32-1.53.96-2 .64-.47 1.499-.704 2.576-.704a9.27 9.27 0 012.528.352v-.256c0-.725-.213-1.28-.64-1.664-.426-.384-1.03-.576-1.808-.576-.81 0-1.648.197-2.512.592l-.368-1.008c1.024-.47 2.027-.704 3.008-.704 1.174 0 2.064.304 2.672.912.576.576.864 1.387.864 2.432V64h-1.216v-1.232c-.736.939-1.728 1.408-2.976 1.408zm.24-.992c.768 0 1.419-.208 1.952-.624.534-.416.8-.95.8-1.6v-.768a8.654 8.654 0 00-2.416-.352c-.757 0-1.35.155-1.776.464-.426.299-.64.71-.64 1.232 0 .501.198.901.592 1.2.406.299.902.448 1.488.448zm10.29 1.008c-1.195 0-2.203-.421-3.024-1.264-.81-.853-1.216-1.872-1.216-3.056s.405-2.197 1.216-3.04c.821-.853 1.83-1.28 3.024-1.28 1.28 0 2.384.49 3.312 1.472l-.784.832c-.768-.81-1.616-1.216-2.544-1.216-.832 0-1.536.315-2.112.944-.566.619-.848 1.381-.848 2.288 0 .896.288 1.659.864 2.288.587.619 1.312.928 2.176.928.885 0 1.717-.416 2.496-1.248l.816.752c-.96 1.067-2.086 1.6-3.376 1.6zm9.14 0c-1.194 0-2.202-.421-3.023-1.264-.811-.853-1.217-1.872-1.217-3.056s.406-2.197 1.216-3.04c.822-.853 1.83-1.28 3.024-1.28 1.28 0 2.385.49 3.313 1.472l-.785.832c-.768-.81-1.616-1.216-2.544-1.216-.831 0-1.535.315-2.111.944-.566.619-.849 1.381-.849 2.288 0 .896.288 1.659.864 2.288.587.619 1.313.928 2.176.928.886 0 1.718-.416 2.497-1.248l.816.752c-.96 1.067-2.086 1.6-3.377 1.6z" fill="#fff"/><defs><linearGradient id="paint0_linear_92_209" x1="0" y1="50" x2="60" y2="50" gradientUnits="userSpaceOnUse"><stop stop-color="#24292D"/><stop offset="1" stop-color="#3C4952"/></linearGradient></defs></svg>